<svg width="50" height="50" viewBox="0 0 50 50" fill="none" xmlns="http://www.w3.org/2000/svg">
<path d="M45.6055 0H4.39453C1.97139 0 0 1.97139 0 4.39453V45.4102C0 47.8333 1.97139 49.8047 4.39453 49.8047H45.6055C48.0286 49.8047 50 47.8333 50 45.4102V4.39453C50 1.97139 48.0286 0 45.6055 0ZM4.39453 2.92969H45.6055C46.4132 2.92969 47.0703 3.58682 47.0703 4.39453V11.7188H2.92969V4.39453C2.92969 3.58682 3.58682 2.92969 4.39453 2.92969ZM45.6055 46.875H4.39453C3.58682 46.875 2.92969 46.2179 2.92969 45.4102V14.6484H47.0703V45.4102C47.0703 46.2179 46.4132 46.875 45.6055 46.875Z" fill="white"/>
</svg>
